<svg xmlns="http://www.w3.org/2000/svg" xmlns:xlink="http://www.w3.org/1999/xlink" x="0px" y="0px" viewBox="0 0 546.29 403.101" xml:space="preserve"><g id="main">	<g>		<g>			<path fill="#262261" d="M402.315,279.097c0.704-1.793,1.713-3.987,3.026-6.581c1.312-2.595,2.897-5.621,4.756-9.079    c1.921-3.522,3.555-6.581,4.899-9.176c1.345-2.594,2.369-4.723,3.075-6.389c0.447-1.023,0.896-2.032,1.345-3.026    c0.447-0.992,0.928-2.001,1.441-3.026c1.024-2.306,1.537-4.355,1.537-6.149c0-2.689-0.672-4.035-2.018-4.035    c-0.833,0-1.762,0.898-2.786,2.69c-0.513,0.897-1.009,1.746-1.489,2.546c-0.48,0.802-0.946,1.618-1.393,2.45    c-0.129,0.514-0.192,0.802-0.192,0.864c0,0.321,0.175,0.93,0.528,1.826c0.351,0.897,0.528,1.602,0.528,2.113    c0,0.641-0.257,1.234-0.769,1.777c-0.514,0.545-1.122,0.816-1.826,0.816c-0.833,0-2.562-1.216-5.188-3.65    c-0.833-0.769-1.249-1.793-1.249-3.074c0-1.537,0.577-3.363,1.729-5.477c2.753-5.188,6.98-8.518,12.682-9.992    c0.639-0.192,1.312-0.288,2.018-0.288c2.945,0,4.867,1.345,5.764,4.035c0.577,1.858,0.865,3.812,0.865,5.86    c0,3.204-0.769,6.854-2.306,10.953c-0.769,1.729-1.537,3.459-2.306,5.188c-0.769,1.729-1.506,3.459-2.21,5.188    c-0.449,0.961-1.073,2.227-1.874,3.795c-0.801,1.57-1.81,3.443-3.026,5.62c-2.243,3.716-3.78,6.918-4.611,9.608    c0.512,0.064,1.489,0.096,2.93,0.096s3.346,0,5.716,0c3.459,0,6.308,0.288,8.551,0.864c1.792,0.449,2.69,1.698,2.69,3.747    c0,0.447-0.096,0.865-0.289,1.249c-0.513,1.153-2.018,1.889-4.516,2.21c-1.09,0.128-2.274,0.224-3.555,0.288    c-1.282,0.063-2.659,0.096-4.131,0.096c-1.025,0-1.921-0.016-2.69-0.048c-0.769-0.033-1.474-0.048-2.114-0.048    c-0.641,0-1.169,0.015-1.585,0.048c-0.417,0.032-0.754,0.048-1.009,0.048c-0.961,0.063-1.729,0.111-2.306,0.145    c-0.576,0.031-0.994,0.048-1.249,0.048C405.806,283.228,403.339,281.85,402.315,279.097z"/>			<path fill="#262261" d="M446.702,279.193c-3.012-0.192-5.541-1.537-7.59-4.035c-2.882-3.521-4.323-8.197-4.323-14.026    c0-5.636,1.185-11.434,3.555-17.39c1.537-3.971,3.202-6.661,4.996-8.071c2.561-2.176,5.604-3.266,9.127-3.266    c2.306,0,4.291,0.672,5.957,2.018c1.921,1.602,3.425,3.362,4.515,5.284c0.896,1.537,1.489,3.17,1.778,4.899    c0.288,1.729,0.56,3.427,0.816,5.092c0.192,1.282,0.288,2.562,0.288,3.843c0,7.11-2.466,13.516-7.397,19.216    c-3.716,4.292-7.398,6.437-11.049,6.437H446.702z M456.597,244.125c-0.449-1.792-1.282-3.041-2.498-3.747    c-0.897-0.512-1.57-0.769-2.018-0.769c-0.513,0-1.121,0.353-1.825,1.057c-4.869,5.061-7.302,11.434-7.302,19.119    c0,4.549,1.088,8.488,3.267,11.817c0.32,0.514,0.704,0.769,1.153,0.769c0.64,0,1.761-0.896,3.363-2.69    c4.931-5.315,7.397-10.695,7.397-16.141c0-1.6-0.192-3.186-0.576-4.755S456.852,245.663,456.597,244.125z"/>			<path fill="#262261" d="M467.838,279.097c0.704-1.793,1.713-3.987,3.026-6.581c1.312-2.595,2.897-5.621,4.756-9.079    c1.921-3.522,3.555-6.581,4.899-9.176c1.345-2.594,2.369-4.723,3.075-6.389c0.447-1.023,0.896-2.032,1.345-3.026    c0.447-0.992,0.928-2.001,1.441-3.026c1.024-2.306,1.537-4.355,1.537-6.149c0-2.689-0.672-4.035-2.018-4.035    c-0.833,0-1.762,0.898-2.786,2.69c-0.513,0.897-1.009,1.746-1.489,2.546c-0.48,0.802-0.946,1.618-1.393,2.45    c-0.129,0.514-0.192,0.802-0.192,0.864c0,0.321,0.175,0.93,0.528,1.826c0.351,0.897,0.528,1.602,0.528,2.113    c0,0.641-0.257,1.234-0.769,1.777c-0.514,0.545-1.122,0.816-1.826,0.816c-0.833,0-2.562-1.216-5.188-3.65    c-0.833-0.769-1.249-1.793-1.249-3.074c0-1.537,0.577-3.363,1.729-5.477c2.753-5.188,6.98-8.518,12.682-9.992    c0.639-0.192,1.312-0.288,2.018-0.288c2.945,0,4.867,1.345,5.764,4.035c0.577,1.858,0.865,3.812,0.865,5.86    c0,3.204-0.769,6.854-2.306,10.953c-0.769,1.729-1.537,3.459-2.306,5.188c-0.769,1.729-1.506,3.459-2.21,5.188    c-0.449,0.961-1.073,2.227-1.874,3.795c-0.801,1.57-1.81,3.443-3.026,5.62c-2.243,3.716-3.78,6.918-4.611,9.608    c0.512,0.064,1.489,0.096,2.93,0.096s3.346,0,5.716,0c3.459,0,6.308,0.288,8.551,0.864c1.792,0.449,2.69,1.698,2.69,3.747    c0,0.447-0.096,0.865-0.289,1.249c-0.513,1.153-2.018,1.889-4.516,2.21c-1.09,0.128-2.274,0.224-3.555,0.288    c-1.282,0.063-2.659,0.096-4.131,0.096c-1.025,0-1.921-0.016-2.69-0.048c-0.769-0.033-1.474-0.048-2.114-0.048    c-0.641,0-1.169,0.015-1.585,0.048c-0.417,0.032-0.754,0.048-1.009,0.048c-0.961,0.063-1.729,0.111-2.306,0.145    c-0.576,0.031-0.994,0.048-1.249,0.048C471.328,283.228,468.862,281.85,467.838,279.097z"/>			<path fill="#262261" d="M522.409,282.844c-1.09,2.177-2.579,4.578-4.468,7.205c-1.89,2.626-4.275,5.477-7.157,8.551    c-2.114,2.369-4.1,3.555-5.957,3.555c-0.384,0-0.96-0.16-1.729-0.48c-0.129,0-0.209-0.032-0.24-0.096    c-0.033-0.064-0.113-0.096-0.24-0.096c-0.706-0.385-1.378-0.817-2.018-1.297c-0.641-0.48-0.994-1.074-1.057-1.777    c0-1.859,1.088-3.459,3.267-4.805c3.33-1.985,5.251-3.331,5.765-4.035c4.419-5.444,7.429-9.575,9.031-12.394    c2.306-4.29,3.458-8.998,3.458-14.123c0-0.384-0.017-0.8-0.048-1.249c-0.033-0.447-0.081-0.992-0.144-1.633v-1.153    c-0.192-2.177-1.218-3.362-3.075-3.555h-0.672c-0.961,0-2.322,0.161-4.083,0.48c-1.762,0.321-3.987,0.802-6.677,1.441    c-0.321-0.513-1.282-1.346-2.882-2.498c-1.218-0.832-1.826-1.665-1.826-2.498c0-0.64,0.288-1.345,0.865-2.114    c1.665-2.049,3.651-4.595,5.957-7.638c2.306-3.041,4.996-6.612,8.07-10.712h-0.576c-1.153,0-2.531,0.191-4.131,0.576    c-2.435,0.576-4.068,0.864-4.9,0.864c-1.858,0-3.427-0.735-4.708-2.209c-0.384-0.448-0.61-1.089-0.673-1.922v-2.113l12.394-2.883    c2.561-0.512,4.674-0.769,6.341-0.769c3.971,0,6.149,1.218,6.533,3.651c0.063,0.191,0.096,0.672,0.096,1.44    c0,3.012-1.633,6.374-4.9,10.088c-2.435,2.883-4.292,5.093-5.572,6.63c-1.282,1.537-2.051,2.466-2.306,2.786l6.053,0.96    c2.498,0.642,4.291,1.826,5.38,3.556c2.561,3.715,3.843,7.462,3.843,11.24c0,2.562-0.737,5.669-2.209,9.319L522.409,282.844z"/>		</g>		<g>			<g>				<g>					<path fill="#262261" d="M40.057,132.671c-0.216,3.836-0.431,7.663-0.646,11.481c-0.479,8.483,0.664,10.771,3.375,11.141      c2.527,0.34,3.586-2.5,3.871-7.79c0.575-10.627-0.366-13.857-10.546-27.714c-13.475-18.599-19.581-28.33-18.196-48.727      c1.553-22.459,9.667-38.808,31.865-37.434C74.212,35.23,77.7,55.295,76.863,75.305c-0.129,3.035-0.259,6.062-0.388,9.08      c-8.184-0.61-16.372-1.364-24.562-2.284c0.194-3.716,0.391-7.441,0.586-11.176c0.391-7.477-0.548-9.566-3.161-9.829      c-2.089-0.214-3.431,1.852-3.793,8.405c-0.419,7.631,0.438,10.83,8.728,21.648c15.132,19.411,22.454,29.023,21.484,51.515      c-1.082,25.577-8.48,41.443-34.22,38.644c-23.004-2.902-30.797-19.974-29.083-45.097c0.188-2.827,0.377-5.653,0.566-8.479      C22.035,129.702,31.048,131.335,40.057,132.671z"/>					<path fill="#262261" d="M116.192,39.718c-1.107,39.111-2.179,76.378-3.212,111.781c-0.146,4.959,0.859,7.606,3.559,7.566      c3.245-0.061,4.206-2.526,4.343-7.664c0.926-35.242,1.887-72.356,2.886-111.341c9.354,0.415,18.704,0.801,28.051,1.171      c-0.574,36.664-1.113,71.641-1.617,104.978c-0.393,28.299-12.503,36.838-34.72,37.713      c-23.132,0.601-32.367-10.373-31.237-37.812c1.371-34.43,2.774-70.386,4.212-107.788      C97.705,38.831,106.951,39.291,116.192,39.718z"/>					<path fill="#262261" d="M224.147,141.575c-0.26-16.729-0.498-45.705-0.558-63.133c-0.464,0.012-0.929,0.023-1.394,0.035      c-1.653,32.329-5.094,86.195-5.365,94.477c-7.01,0.947-14.023,1.863-21.037,2.728c-1.01-17.323-4.86-70.27-6.885-97.081      c-0.465,0.008-0.93,0.014-1.395,0.022c0.144,16.375,0.825,43.259,0.829,65.703c0,10.896,0.004,21.646,0.013,32.253      c-8.77,1.033-17.542,1.977-26.318,2.795c0.431-43.065,0.925-88.907,1.48-137.686c12.382,0.477,24.757,0.939,37.126,1.411      c1.228,13.064,3.972,43.679,4.967,59.313c0.352-0.021,0.703-0.04,1.056-0.061c1.454-18.684,2.072-31.272,4.282-58.856      c12.88,0.498,25.753,1.014,38.619,1.564c1.048,41.66,2.157,82.497,3.329,122.826c-9.42,1.35-18.843,2.7-28.269,4.003      C224.463,161.864,224.304,151.761,224.147,141.575z"/>					<path fill="#262261" d="M325.116,130.605c-0.984-14.998-2.453-39.858-3.238-54.162c-0.464,0.002-0.927,0.004-1.39,0.007      c-0.313,26.212-1.446,74.479-1.348,82.501c-6.992,0.823-13.987,1.703-20.983,2.623c-1.772-16.41-7.831-63.148-10.89-85.216      c-0.464,0.008-0.927,0.017-1.391,0.025c0.785,13.69,2.549,36.729,3.49,56.854c0.453,9.74,0.911,19.514,1.373,29.326      c-8.747,1.182-17.497,2.415-26.25,3.663c-1.376-39.963-2.691-80.087-3.943-120.688c12.348,0.548,24.688,1.131,37.023,1.756      c1.73,10.434,5.699,35.675,7.341,49.126c0.351-0.017,0.702-0.034,1.053-0.051c0.684-15.84,0.786-26.439,1.884-48.545      c12.845,0.674,25.683,1.395,38.513,2.156c2.856,33.143,5.773,68.198,8.753,105.337c-9.395,0.769-18.794,1.698-28.195,2.743      C326.312,148.819,325.712,139.668,325.116,130.605z"/>					<path fill="#262261" d="M412.185,108.805c-7.168-0.306-14.339-0.492-21.512-0.571c0.842,7.849,1.687,15.826,2.535,23.934      c8.752-0.07,17.5,0.046,26.245,0.38c-0.257,6.739-0.522,13.582-0.797,20.533c-17.316-0.336-34.644,0.215-51.983,1.375      c-3.185-36.801-6.306-71.362-9.367-103.817c16.361,0.998,32.71,2.058,49.048,3.143c0.782,6.042,1.568,12.178,2.355,18.407      c-7.367-0.443-14.736-0.827-22.108-1.157c0.642,5.741,1.286,11.559,1.932,17.454c7.096,0.201,14.19,0.48,21.281,0.849      C410.602,95.733,411.392,102.223,412.185,108.805z"/>					<path fill="#262261" d="M452.086,112.438c2.006,14.073,4.023,28.438,6.051,43.066c-9.49-1.01-18.983-1.691-28.48-2.088      c-4.301-35.201-8.54-68.229-12.717-98.929c11.211,0.749,22.417,1.504,33.617,2.243c22.137,1.286,30.719,11.85,33.29,28.181      c0.194,1.234,0.389,2.469,0.583,3.702c1.828,11.6-1.606,16.711-7.974,18.671c8.925,4.673,12.117,10.89,14.494,25.872      c1.959,12.363,3.648,24.063,4.83,28.183c-9.241-1.907-18.485-3.448-27.733-4.66c-1.53-1.989-2.922-9.351-6.289-32.521      c-1.463-10.015-2.625-10.896-8.262-11.561C453.026,112.544,452.556,112.491,452.086,112.438z M449.739,94.883      c0.698,0.074,1.395,0.148,2.093,0.222c4.536,0.5,6.258-0.614,5.331-6.827c-0.389-2.608-0.777-5.207-1.165-7.796      c-0.811-5.42-2.538-6.726-7.878-7.201c-0.517-0.046-1.034-0.09-1.551-0.135C447.624,80.304,448.68,87.552,449.739,94.883z"/>					<path fill="#262261" d="M72.163,283.731c-0.146,3.259-0.293,6.498-0.437,9.72c-0.833,18.796-5.851,36.613-37.612,40.553      c-17.225,2.155-33.879-1.788-31.695-35.476c1.395-21.707,2.803-43.551,4.225-65.465c1.994-30.197,16.906-36.304,35.772-34.266      c29.844,2.897,32.42,23.898,31.801,38.575c-0.175,4.008-0.35,7.991-0.524,11.95c-10.028,0.11-20.059-0.024-30.094-0.436      c0.283-5.231,0.567-10.491,0.852-15.779c0.291-5.426,0.095-8.675-3.425-8.956c-3.331-0.278-4.224,2.306-4.568,8.396      c-1.331,23.595-2.645,46.708-3.941,69.279c-0.367,6.397,0.264,8.659,3.33,8.466c3.45-0.227,4.534-2.549,4.911-9.406      c0.294-5.342,0.591-10.72,0.887-16.133C51.821,284.589,61.993,284.241,72.163,283.731z"/>					<path fill="#262261" d="M109.091,299.946c-0.758,8.139-1.518,16.148-2.281,24.026c-10.416,1.175-20.836,2.342-31.26,3.508      c6.27-38.966,12.376-80.221,18.314-124.212c15.464-0.084,30.919-0.828,46.365-2.042c3.484,42.397,7.254,81.363,11.308,117.636      c-10.534,1.222-21.072,2.429-31.613,3.625c-0.312-7.705-0.615-15.551-0.91-23.542      C115.707,299.288,112.399,299.62,109.091,299.946z M118.306,275.95c-0.337-8.79-1.701-40.689-2.053-47.701      c-0.433,0.026-0.864,0.051-1.296,0.077c-0.336,5.678-3.103,36.8-4.02,48.271C113.393,276.391,115.849,276.174,118.306,275.95z"/>					<path fill="#262261" d="M226.428,281.563c-0.315-15.597-0.638-42.527-0.743-58.699c-0.494,0.078-0.988,0.156-1.483,0.235      c-1.683,30.274-5.199,80.177-5.464,87.763c-7.44,0.908-14.881,1.81-22.325,2.704c-1.127-15.538-5.38-62.357-7.619-85.702      c-0.494,0.068-0.989,0.138-1.483,0.206c0.203,14.427,1.013,38.1,1.091,57.94c0.036,9.628,0.075,19.127,0.119,28.501      c-9.307,1.11-18.616,2.209-27.927,3.296c0.292-36.883,0.645-76.339,1.06-118.55c13.18-1.373,26.355-3.027,39.521-4.841      c1.346,11.461,4.353,38.615,5.452,52.684c0.375-0.056,0.748-0.113,1.123-0.17c1.493-17.105,2.119-28.577,4.397-54.06      c13.711-1.973,27.417-4.085,41.115-6.201c1.187,40.182,2.438,79.899,3.75,119.468c-9.996,1.247-19.996,2.487-29.999,3.715      C226.813,300.482,226.618,291.054,226.428,281.563z"/>					<path fill="#262261" d="M264.948,184.864c12.111-1.864,24.218-3.701,36.318-5.419c21.123-2.916,31.578,7.853,32.937,27.787      c0.172,2.597,0.344,5.202,0.517,7.814c1.489,22.124-6.744,35.469-30.144,38.905c-2.324,0.347-4.648,0.696-6.972,1.047      c0.743,15.122,1.495,30.37,2.255,45.761c-10.178,1.28-20.361,2.561-30.547,3.838      C267.795,264.594,266.34,224.787,264.948,184.864z M296.469,231.868c0.809-0.126,1.618-0.253,2.426-0.377      c4.854-0.75,6.408-3.352,6.028-10.523c-0.227-4.301-0.453-8.588-0.678-12.865c-0.34-6.409-3-7.62-7.051-7.004      c-0.737,0.113-1.473,0.225-2.21,0.338C295.475,211.529,295.971,221.671,296.469,231.868z"/>				</g>			</g>			<g>				<g>					<path fill="#262261" d="M354.94,214.096c0,0-1.442-0.099-1.383,1.123c0.101,2.115,1.169,6.865,4.657,11.721      c2.592,3.604,5.502,6.422,7.58,8.218c1.099,0.95,2.805,0.171,2.807-1.282l0.025-18.002c0.001-0.982-0.794-1.778-1.775-1.778      l-6.907-0.047"/>				</g>				<path fill="#262261" d="M396.76,190.34c-2.132,0.076-5.454-0.078-9.058-1.279c-2.837-0.948-5.082-2.233-6.674-3.339     c-1.185-0.823-2.806,0.027-2.806,1.47l0.006,28.976c0,0.981,0.796,1.776,1.777,1.775l15.129-0.015     c0.822-0.001,1.54-0.564,1.725-1.365c1.755-7.57,2.219-19.07,2.302-24.029C398.762,190.6,397.341,190.355,396.76,190.34z"/>				<path fill="#262261" d="M369.942,177.405c-1.918,1.427-4.604,3.183-7.433,4.272c-3.384,1.301-7.215,2.014-9.606,2.364l0,0     c-2.012,0.341-2.313,1.744-2.345,2.376c0.06,4.066,0.39,13.285,1.599,20.707c0.14,0.859,0.882,1.49,1.752,1.49h17.068     c0.98,0,1.774-0.793,1.775-1.773l0.038-28.006C372.793,177.366,371.12,176.528,369.942,177.405z"/>				<path fill="#262261" d="M395.917,225.268c0.009-0.021,0.017-0.042,0.026-0.063c0.638-1.741-1.598-1.857-2.126-1.863h-18.028     c-0.981,0-1.776,0.795-1.775,1.776l0.005,19.482c0,1.284,1.32,2.141,2.495,1.623c2.381-1.049,6.25-3.278,10.659-7.852     c5.006-5.19,7.584-10.309,8.714-13.028C395.897,225.318,395.907,225.293,395.917,225.268z"/>			</g>		</g>		<g>			<g>				<g opacity="0.3">					<polygon fill="#9E2BA6" points="134.959,401.459 526.019,396.335 516.365,362.874 539.806,330.7 125.28,342.745       155.75,372.544      "/>				</g>				<g>					<polygon fill="#9E2BA6" points="128.452,397.125 519.513,392 509.859,358.539 533.3,326.365 118.774,338.41 149.243,368.209            "/>				</g>			</g>			<g>				<path fill="#FFFFFF" d="M155.816,366.661c-0.058-4.893,3.918-8.554,9.596-8.621c2.155-0.025,4.136,0.467,5.422,1.103     l0.065,5.566c-1.308-0.545-3.334-1.06-4.838-1.042c-2.379,0.028-3.598,1.389-3.577,3.14c0.022,1.908,1.539,3.035,3.178,3.016     c0.314-0.003,0.538-0.051,0.672-0.098l-0.01-0.831l-1.616,0.019l-0.043-3.636l6.644-0.078l0.095,8.035     c-1.181,0.754-3.282,1.52-5.953,1.552C159.594,374.854,155.871,371.33,155.816,366.661z"/>				<path fill="#FFFFFF" d="M173.109,358.196l11.693-0.138l0.064,5.432l-5.005,0.059l0.01,0.875l4.04-0.048l0.045,3.86l-4.04,0.048     l0.011,0.92l5.319-0.062l0.061,5.162l-12.007,0.141L173.109,358.196z"/>				<path fill="#FFFFFF" d="M191.149,363.506l-4.534,0.053l-0.065-5.521l15.756-0.186l0.065,5.521l-4.534,0.053l0.126,10.728     l-6.688,0.079L191.149,363.506z"/>				<path fill="#FFFFFF" d="M210.044,357.761l6.666-0.079c3.344-0.039,7.91,0.737,7.961,5.069c0.021,1.75-0.794,3.017-1.997,3.884     l3.788,7.184l-7.025,0.083l-2.487-5.313l-0.09,0.001l0.063,5.342l-6.688,0.079L210.044,357.761z M217.311,364.859     c1.055-0.013,1.519-0.58,1.511-1.275c-0.008-0.696-0.508-1.229-1.54-1.216l-0.494,0.006l0.029,2.491L217.311,364.859z"/>				<path fill="#FFFFFF" d="M226.963,357.562l11.693-0.138l0.064,5.432l-5.005,0.059l0.01,0.875l4.041-0.048l0.045,3.86     l-4.041,0.048l0.011,0.92l5.32-0.063l0.061,5.162l-12.008,0.142L226.963,357.562z"/>				<path fill="#FFFFFF" d="M245.97,357.338l6.396-0.075l6.386,16.177l-7.227,0.085l-0.587-2.126l-3.726,0.044l-0.603,2.14     l-6.644,0.078L245.97,357.338z M249.814,367.327l-0.757-3.291l-0.045,0l-0.679,3.308L249.814,367.327z"/>				<path fill="#FFFFFF" d="M259.871,373.426l-0.191-16.25l6.8-0.08c3.142-0.037,5.577,0.899,7.234,2.451     c1.452,1.352,2.395,3.205,2.422,5.561c0.026,2.245-0.804,4.185-2.246,5.594c-1.665,1.635-4.1,2.607-7.174,2.643L259.871,373.426     z M266.497,368.05l0.157-0.002c1.122-0.013,1.97-0.382,2.503-0.949c0.443-0.477,0.728-1.131,0.718-1.917     c-0.01-0.808-0.31-1.478-0.764-1.943c-0.478-0.488-1.245-0.861-2.479-0.847l-0.202,0.002L266.497,368.05z"/>				<path fill="#FFFFFF" d="M280.255,366.317l-6.081-9.312l7.541-0.089l1.884,3.682l0.045-0.001l1.819-3.725l7.294-0.086     l-5.817,9.25l0.083,7.07l-6.688,0.079L280.255,366.317z"/>				<path fill="#FFFFFF" d="M299.24,356.71l12.03-0.142l0.064,5.432l-5.342,0.063l0.011,0.92l4.264-0.05l0.048,4.085l-4.264,0.05     l0.068,5.813l-6.688,0.079L299.24,356.71z"/>				<path fill="#FFFFFF" d="M321.274,356.204c5.095-0.06,9.11,3.552,9.166,8.265c0.056,4.714-3.874,8.419-8.969,8.479     c-5.095,0.06-9.11-3.551-9.166-8.265C312.25,359.969,316.179,356.264,321.274,356.204z M321.403,367.202     c1.392-0.016,2.5-1.152,2.484-2.543c-0.017-1.392-1.151-2.5-2.543-2.484c-1.392,0.017-2.5,1.151-2.484,2.543     C318.877,366.109,320.012,367.218,321.403,367.202z"/>				<path fill="#FFFFFF" d="M331.957,356.325l6.666-0.079c3.345-0.04,7.91,0.737,7.961,5.069c0.021,1.75-0.795,3.017-1.997,3.885     l3.789,7.183l-7.025,0.083l-2.487-5.313l-0.09,0.001l0.063,5.342l-6.688,0.079L331.957,356.325z M339.223,363.422     c1.055-0.012,1.52-0.579,1.512-1.274c-0.008-0.696-0.509-1.229-1.541-1.217l-0.494,0.006l0.029,2.491L339.223,363.422z"/>				<path fill="#FFFFFF" d="M355.766,365.697c2.194,1.389,4.398,1.878,5.364,1.867c0.673-0.008,0.828-0.279,0.824-0.548     c-0.003-0.314-0.208-0.446-0.5-0.51c-0.788-0.193-3.058-0.413-4.736-1.852c-0.862-0.753-1.458-1.802-1.477-3.373     c-0.038-3.254,2.45-5.506,6.557-5.554c1.975-0.023,4.315,0.465,5.806,1.211l0.062,5.319c-2.122-1.03-4.102-1.388-4.932-1.378     c-0.651,0.007-0.828,0.256-0.825,0.503c0.004,0.337,0.253,0.468,0.523,0.555c0.676,0.194,2.923,0.437,4.532,1.675     c1.11,0.885,1.663,2.023,1.68,3.482c0.037,3.12-2.452,5.326-6.716,5.376c-2.042,0.024-4.495-0.441-6.098-1.252L355.766,365.697z     "/>				<path fill="#FFFFFF" d="M370.005,364.743l-0.104-8.865l6.688-0.079l0.099,8.417c0.018,1.526,0.525,2.598,2.073,2.58     c1.481-0.018,1.986-0.966,1.967-2.605l-0.099-8.439l6.015-0.071l0.104,8.775c0.029,2.492-0.581,4.07-1.421,5.112     c-1.46,1.813-4.144,2.676-6.904,2.708c-2.851,0.034-5.375-0.834-6.831-2.501C370.772,368.843,370.037,367.392,370.005,364.743z"/>				<path fill="#FFFFFF" d="M388.592,355.658l6.239-0.073l3.28,4.047l3.072-4.122l6.06-0.072l0.191,16.25l-6.688,0.079l-0.093-7.923     l-0.045,0l-2.85,3.85l-3.008-3.781l-0.045,0l0.093,7.923l-6.015,0.071L388.592,355.658z"/>				<path fill="#FFFFFF" d="M409.214,355.415l6.239-0.074l3.28,4.047l3.072-4.122l6.06-0.071l0.191,16.25l-6.688,0.079l-0.093-7.923     l-0.045,0l-2.85,3.85l-3.008-3.781l-0.045,0l0.093,7.923l-6.015,0.071L409.214,355.415z"/>				<path fill="#FFFFFF" d="M429.836,355.172l11.693-0.138l0.064,5.432l-5.005,0.059l0.01,0.875l4.041-0.048l0.045,3.86     l-4.041,0.048l0.011,0.92l5.319-0.062l0.061,5.162l-12.007,0.141L429.836,355.172z"/>				<path fill="#FFFFFF" d="M443.501,355.011l6.666-0.078c3.345-0.04,7.91,0.737,7.961,5.069c0.021,1.75-0.794,3.017-1.997,3.884     l3.789,7.184l-7.025,0.083l-2.487-5.313l-0.09,0.001l0.063,5.342l-6.688,0.079L443.501,355.011z M450.768,362.108     c1.055-0.012,1.52-0.58,1.511-1.275c-0.008-0.696-0.508-1.229-1.541-1.216l-0.494,0.006l0.029,2.491L450.768,362.108z"/>				<path fill="#FFFFFF" d="M468.982,353.858l3.838-0.045l-1.378,6.885l-5.005,0.059L468.982,353.858z"/>				<path fill="#FFFFFF" d="M477.589,364.352c1.235-1.833,1.742-2.647,1.733-3.365c-0.01-0.897-0.755-1.248-1.743-1.236     c-1.123,0.013-2.531,0.501-3.49,0.939l-0.06-5.028c1.451-0.69,3.329-1.296,5.551-1.322c4.713-0.056,6.518,2.594,6.547,5.063     c0.03,2.558-1.878,4.512-3.788,6.195l0.023,0.044l3.613-0.042l0.061,5.162l-12.793,0.15l-0.023-0.044L477.589,364.352z"/>				<path fill="#FFFFFF" d="M487.614,365.715c1.306,0.344,2.566,0.621,3.621,0.608c1.055-0.012,1.366-0.308,1.36-0.802     s-0.346-0.782-1.356-0.77l-1.638,0.019l-0.046-3.905l1.638-0.019c1.01-0.012,1.344-0.285,1.337-0.801     c-0.006-0.494-0.346-0.782-1.378-0.77c-0.987,0.012-2.173,0.295-3.158,0.576l-0.054-4.624c1.227-0.666,3.22-1.026,4.858-1.045     c3.704-0.043,6.575,1.696,6.607,4.502c0.021,1.818-1.154,2.999-2.878,3.355l0,0.045c1.823,0.45,3.117,1.625,3.141,3.712     c0.039,3.299-3.15,5.087-7.257,5.136c-1.549,0.018-3.414-0.207-4.745-0.708L487.614,365.715z"/>			</g>		</g>		<g id="Icon_20_00000159451530427643630870000003256099390331515530_">			<path fill-rule="evenodd" clip-rule="evenodd" fill="#F7334E" d="M452.104,37.319c1.991,1.881,4.235,1.229,4.659-0.997    c0.581-3.055,0.901-6.159,1.421-9.227c0.248-1.468,0.552-2.959,1.088-4.341c2.088-5.385,3.037-11.031,3.961-16.684    c0.128-0.783,0.069-1.609,0-2.408c-0.113-1.306-0.82-2.082-2.192-2.017c-1.291,0.062-2.2,0.553-2.5,2.012    c-2.15,10.424-4.366,20.834-6.505,31.259C451.853,35.806,452.082,36.781,452.104,37.319z"/>			<path fill-rule="evenodd" clip-rule="evenodd" fill="#F7334E" d="M492.174,51.206c-0.421,0.677-0.85,1.164-1.054,1.729    c-0.582,1.618,0.611,3.011,2.256,2.532c1.111-0.324,2.181-0.919,3.154-1.566c5.276-3.505,10.547-7.019,15.755-10.623    c2.48-1.716,4.835-3.616,7.211-5.478c1.141-0.895,1.804-2.178,0.781-3.398c-0.932-1.113-2.277-0.72-3.392,0.045    c-6.812,4.68-13.612,9.379-20.432,14.047C495.027,49.472,493.531,50.35,492.174,51.206z"/>			<path fill-rule="evenodd" clip-rule="evenodd" fill="#F7334E" d="M492.902,21.537c-3.002,4.637-5.996,9.279-9.011,13.906    c-2.169,3.33-2.537,4.099-4.766,7.388c-0.701,1.033-1.177,2.206-0.149,2.979c0.64,0.48,2.029,0.464,2.829,0.106    c1.002-0.45,1.965-1.339,2.564-2.281c4.229-6.652,6.563-10.805,10.718-17.504c0.49-0.789,0.993-1.587,1.356-2.438    c0.467-1.095,0.564-2.264-0.62-2.981C494.641,19.996,493.689,20.556,492.902,21.537z"/>			<path fill-rule="evenodd" clip-rule="evenodd" fill="#F7334E" d="M502.874,83.782c0.54,0.16,1.526,0.704,2.507,0.695    c2.908-0.024,5.813-0.33,8.723-0.409c4.534-0.124,9.07-0.136,13.606-0.229c1.235-0.025,2.191-0.568,2.418-1.888    c0.225-1.304-0.425-2.174-1.623-2.58c-0.864-0.292-1.776-0.605-2.668-0.613c-1.547-0.013-3.095,0.276-4.646,0.31    c-4.842,0.105-9.687,0.093-14.527,0.261c-1.259,0.043-2.57,0.417-3.732,0.927C501.677,80.809,501.553,82.418,502.874,83.782z"/>			<path fill-rule="evenodd" clip-rule="evenodd" fill="#F7334E" d="M501.529,98.539c1.336,0.507,2.4,1.067,3.533,1.313    c4.728,1.025,9.474,1.969,14.22,2.913c1.432,0.284,2.669-0.001,3.017-1.657c0.34-1.612-0.563-2.471-2.029-2.78    c-2.366-0.499-4.759-0.876-7.118-1.406c-2.537-0.572-5.039-1.302-7.575-1.876c-0.94-0.212-1.976-0.369-2.891-0.181    c-0.58,0.12-1.283,0.851-1.45,1.443C501.05,96.972,501.407,97.788,501.529,98.539z"/>			<path fill-rule="evenodd" clip-rule="evenodd" fill="#F7334E" d="M499.693,67.201c-0.053,0.628-0.452,1.653-0.102,2.179    c0.415,0.623,1.582,1.27,2.242,1.118c4.112-0.946,13.091-3.174,17.154-4.32c0.624-0.176,1.354-0.589,1.665-1.111    c0.43-0.723,0.942-1.916,0.63-2.431c-0.387-0.64-1.691-1.255-2.404-1.082c-4.215,1.026-13.289,3.354-17.455,4.57    C500.909,66.275,500.477,66.702,499.693,67.201z"/>			<path fill-rule="evenodd" clip-rule="evenodd" fill="#F7334E" d="M469.374,40.826c0.518-1.056,0.837-1.656,1.111-2.275    c0.875-1.978,1.71-3.973,2.606-5.94c0.702-1.543,0.29-3.02-1.148-3.602c-1.499-0.608-2.371,0.251-2.947,1.481    c-1.13,2.415-2.182,4.867-3.309,7.283c-0.513,1.101-0.878,2.376,0.373,2.926C467.044,41.129,468.355,40.812,469.374,40.826z"/>			<path fill-rule="evenodd" clip-rule="evenodd" fill="#F7334E" d="M442.497,35.673c0.124-0.662,0.523-1.794,0.504-2.92    c-0.027-1.671-1.015-11.766-1.237-13.431c-0.176-1.323-0.848-2.238-2.286-2.238c-1.424-0.001-2.27,0.878-2.275,2.215    c-0.008,2.532,0.711,13.512,1.03,16.018C438.453,37.045,440.814,37.428,442.497,35.673z"/>			<path fill-rule="evenodd" clip-rule="evenodd" fill="#F7334E" d="M534.67,83.355c0.87,0.312,1.492,0.701,2.13,0.73    c1.669,0.074,3.353,0.076,5.018-0.058c1.297-0.103,2.28-0.841,2.247-2.265c-0.032-1.363-0.984-1.92-2.261-1.961    c-1.862-0.06-3.737-0.237-5.582-0.082c-0.69,0.059-1.58,0.79-1.882,1.445C534.081,81.723,534.532,82.609,534.67,83.355z"/>			<path fill-rule="evenodd" clip-rule="evenodd" fill="#F7334E" d="M472.754,21.496c-1.151,0.961-1.418,2.303-0.835,3.655    c0.293,0.679,1.095,1.512,1.73,1.569c0.671,0.06,1.537-0.604,2.089-1.172c0.439-0.452,0.532-1.238,0.783-1.874    c0.459-1.164,0.736-2.407-0.49-3.187C474.738,19.663,473.666,20.38,472.754,21.496z"/>		</g>	</g>	<g>		<defs>							<rect id="SVGID_00000017512313731296817320000002325580449425815726_" x="-483.944" y="1883.655" width="1709.065" height="949.588"/>		</defs>		<clipPath id="SVGID_00000147197584356908258340000005128777699392094353_">			<use xlink:href="#SVGID_00000017512313731296817320000002325580449425815726_"/>		</clipPath>		<g clip-path="url(#SVGID_00000147197584356908258340000005128777699392094353_)">			<defs>				<path id="SVGID_00000045588310263204057720000003887901894812976030_" d="M1625.244,1996.182     c-133.422-36.209-341.713-81.96-602.099-92.617c-367.324-15.034-421.016,56.85-807.094,43.33     c-366.248-12.826-670.662-59.718-1006.959-39.848c0,0,231.035-19.878-167.846,14.364l0,0c0,253.221,0,506.442-0.001,759.663     c-25.977,55.923-11.837,89.01,3.851,108.272c73.395,90.111,278.041-62.104,1138.35,32.732     c140.908,15.533,346.183-5.09,601.386-47.949c59.625-10.014,89.664-19.01,157.242-27.078     c168.701-20.141,597.758,36.92,597.758,36.92L1625.244,1996.182z"/>			</defs>			<clipPath id="SVGID_00000068652512012911235530000016144269127055470005_">				<use xlink:href="#SVGID_00000045588310263204057720000003887901894812976030_"/>			</clipPath>			<g clip-path="url(#SVGID_00000068652512012911235530000016144269127055470005_)">				<defs>					<path id="SVGID_00000070094961948688687690000002149918281074965408_" d="M-483.944,1883.655      c335.492-30.859,600.073-25.038,782.331-13.495c148.503,9.405,329.81,28.148,604.146,25.633      c135.254-1.24,246.264-7.217,319.531-12.138c0,417.219,0,834.438,0,1251.656H-483.944V1883.655z"/>				</defs>				<clipPath id="SVGID_00000022549534443219692750000011626889491729439641_">					<use xlink:href="#SVGID_00000070094961948688687690000002149918281074965408_"/>				</clipPath>				<g clip-path="url(#SVGID_00000022549534443219692750000011626889491729439641_)">					<g opacity="0.16">						<path fill="#FFFFFF" d="M-1.987,340.271c6.8,4.416,13.787,8.509,20.922,12.314c-2.4,4.052-4.942,8.02-7.635,11.895       c-3.078,4.431,3.893,8.945,6.955,4.537c2.855-4.109,5.533-8.324,8.054-12.63c6.53,3.241,13.177,6.244,19.94,8.982       c4.952,2.005,7.459-6.003,2.541-7.994c-6.251-2.531-12.391-5.299-18.423-8.285c2.923-5.513,5.605-11.16,8.025-16.943       c2.084-4.981-5.808-7.506-7.874-2.569c-2.248,5.374-4.76,10.611-7.493,15.725c-7.001-3.734-13.853-7.759-20.534-12.098       C-1.998,330.29-6.472,337.359-1.987,340.271z"/>						<path fill="#FFFFFF" d="M-40.534,393.953c4.769,2.084,9.537,4.167,14.306,6.251c-2.27,5.406-4.112,11-5.491,16.741       c-1.256,5.228,6.612,7.823,7.874,2.569c1.323-5.509,3.069-10.839,5.228-15.985c5.372,2.347,10.743,4.694,16.115,7.041       c4.891,2.137,7.388-5.877,2.541-7.994c-5.04-2.202-10.08-4.404-15.119-6.606c1.762-3.39,3.719-6.69,5.872-9.896       c3.009-4.479-3.958-8.999-6.955-4.537c-2.401,3.575-4.581,7.283-6.541,11.102c-5.096-2.227-10.193-4.453-15.289-6.68       C-42.884,383.822-45.38,391.836-40.534,393.953z"/>						<path fill="#FFFFFF" d="M100.701,344.993c6.8,4.416,13.787,8.509,20.922,12.314c-2.4,4.052-4.942,8.02-7.635,11.895       c-3.078,4.431,3.893,8.945,6.955,4.537c2.855-4.109,5.533-8.324,8.054-12.63c6.53,3.241,13.177,6.244,19.94,8.982       c4.952,2.005,7.459-6.003,2.541-7.994c-6.251-2.531-12.391-5.299-18.423-8.285c2.923-5.513,5.605-11.16,8.025-16.943       c2.084-4.981-5.808-7.506-7.874-2.569c-2.248,5.374-4.76,10.611-7.493,15.725c-7.001-3.734-13.853-7.759-20.534-12.098       C100.69,335.013,96.217,342.082,100.701,344.993z"/>						<path fill="#FFFFFF" d="M62.155,398.676c4.769,2.084,9.537,4.167,14.306,6.251c-2.27,5.406-4.112,11-5.491,16.741       c-1.256,5.228,6.612,7.823,7.874,2.569c1.323-5.509,3.069-10.839,5.228-15.985c5.372,2.347,10.743,4.694,16.115,7.041       c4.891,2.137,7.388-5.877,2.541-7.994c-5.04-2.202-10.08-4.404-15.119-6.606c1.762-3.39,3.719-6.69,5.872-9.896       c3.009-4.479-3.958-8.999-6.955-4.537c-2.401,3.575-4.581,7.283-6.541,11.102c-5.096-2.227-10.193-4.453-15.289-6.68       C59.804,388.545,57.308,396.559,62.155,398.676z"/>					</g>				</g>			</g>		</g>	</g></g><g id="nav"/><g id="masks"/></svg>