<svg xmlns="http://www.w3.org/2000/svg" xmlns:xlink="http://www.w3.org/1999/xlink" x="0px" y="0px" viewBox="0 0 432 432" xml:space="preserve"><g id="main">	<g opacity="0.08">		<rect fill="none" width="432" height="432"/>		<g>							<line fill="none" stroke="#3D559B" stroke-width="10" stroke-miterlimit="10" x1="215.846" y1="429.645" x2="180.01" y2="439.425"/>		</g>		<g>							<line fill="none" stroke="#3D559B" stroke-width="10" stroke-miterlimit="10" x1="234.219" y1="193.532" x2="254.219" y2="224.835"/>							<line fill="none" stroke="#B7ADD1" stroke-width="10" stroke-miterlimit="10" x1="134.962" y1="96.471" x2="139.452" y2="133.345"/>							<line fill="none" stroke="#B7ADD1" stroke-width="10" stroke-miterlimit="10" x1="328.928" y1="148.005" x2="291.966" y2="151.701"/>							<line fill="none" stroke="#3D559B" stroke-width="10" stroke-miterlimit="10" x1="71.811" y1="208.915" x2="36.606" y2="197.064"/>							<line fill="none" stroke="#EFE96F" stroke-width="10" stroke-miterlimit="10" x1="443.168" y1="111.223" x2="418.076" y2="83.832"/>							<line fill="none" stroke="#B7ADD1" stroke-width="10" stroke-miterlimit="10" x1="283.606" y1="328.189" x2="279.979" y2="291.22"/>							<line fill="none" stroke="#EFE96F" stroke-width="10" stroke-miterlimit="10" x1="145.158" y1="248.663" x2="160.993" y2="215.06"/>			<line fill="none" stroke="#3D559B" stroke-width="10" stroke-miterlimit="10" x1="215.846" y1="-2.355" x2="180.01" y2="7.425"/>			<line fill="none" stroke="#EFE96F" stroke-width="10" stroke-miterlimit="10" x1="252.811" y1="91.355" x2="272.571" y2="59.9"/>							<line fill="none" stroke="#3D559B" stroke-width="10" stroke-miterlimit="10" x1="102.672" y1="404.641" x2="122.431" y2="373.186"/>							<line fill="none" stroke="#3D559B" stroke-width="10" stroke-miterlimit="10" x1="401.48" y1="225.743" x2="366.407" y2="237.98"/>							<line fill="none" stroke="#B7ADD1" stroke-width="10" stroke-miterlimit="10" x1="385.788" y1="350.412" x2="422.143" y2="358.043"/>							<line fill="none" stroke="#EFE96F" stroke-width="10" stroke-miterlimit="10" x1="73.215" y1="36.372" x2="109.589" y2="43.908"/>							<line fill="none" stroke="#EFE96F" stroke-width="10" stroke-miterlimit="10" x1="320.177" y1="442.497" x2="347.614" y2="417.455"/>							<line fill="none" stroke="#EFE96F" stroke-width="10" stroke-miterlimit="10" x1="161.898" y1="321.116" x2="196.516" y2="334.584"/>							<line fill="none" stroke="#B7ADD1" stroke-width="10" stroke-miterlimit="10" x1="38.763" y1="302.088" x2="48.705" y2="337.88"/>			<circle fill="#B7ADD1" cx="120.698" cy="175.657" r="5.432"/>			<circle fill="#EFE96F" cx="54.208" cy="134.495" r="5.432"/>			<circle fill="#EFE96F" cx="85.97" cy="276.609" r="5.432"/>			<circle fill="#EFE96F" cx="32.87" cy="394.346" r="5.432"/>			<circle fill="#EFE96F" cx="262.691" cy="370.246" r="5.432"/>			<circle fill="#EFE96F" cx="346.71" cy="89.402" r="5.432"/>			<circle fill="#EFE96F" cx="317.062" cy="216" r="5.432"/>			<circle fill="#EFE96F" cx="415.968" cy="419.963" r="5.432"/>			<circle fill="#B7ADD1" cx="216" cy="282.04" r="5.432"/>			<circle fill="#B7ADD1" cx="372.945" cy="26.262" r="5.432"/>			<circle fill="#B7ADD1" cx="402.15" cy="158.786" r="5.432"/>			<circle fill="#B7ADD1" cx="421.4" cy="271.177" r="5.432"/>			<circle fill="#B7ADD1" cx="170.566" cy="388.914" r="5.432"/>			<circle fill="#3D559B" cx="249.416" cy="22.19" r="5.432"/>			<circle fill="#3D559B" cx="203.982" cy="129.064" r="5.432"/>			<circle fill="#3D559B" cx="341.279" cy="292.904" r="5.432"/>			<circle fill="#3D559B" cx="38.302" cy="61.547" r="5.432"/>			<circle fill="#3D559B" cx="295.845" cy="399.777" r="5.432"/>		</g>		<g>							<line fill="none" stroke="#EFE96F" stroke-width="10" stroke-miterlimit="10" x1="11.168" y1="111.223" x2="-13.924" y2="83.832"/>		</g>		<g>							<line fill="none" stroke="#EFE96F" stroke-width="10" stroke-miterlimit="10" x1="320.177" y1="10.497" x2="347.614" y2="-14.545"/>		</g>	</g></g><g id="masks"/></svg>